Coordinates
version=1
nRows=8
nColumns=63
inDegrees=yes

Units are S.I. units (second, meters, Newtons, ...)
If the header above contains a line with 'inDegrees', this indicates whether rotational values are in degrees (yes) or radians (no).

endheader
time	pelvis_tilt	pelvis_list	pelvis_rotation	pelvis_tx	pelvis_ty	pelvis_tz	hip_flexion_r	hip_adduction_r	hip_rotation_r	knee_angle_r	knee_angle_r_beta	ankle_angle_r	subtalar_angle_r	mtp_angle_r	hip_flexion_l	hip_adduction_l	hip_rotation_l	knee_angle_l	knee_angle_l_beta	ankle_angle_l	subtalar_angle_l	mtp_angle_l	L5_S1_Flex_Ext	L5_S1_Lat_Bending	L5_S1_axial_rotation	L4_L5_Flex_Ext	L4_L5_Lat_Bending	L4_L5_axial_rotation	L3_L4_Flex_Ext	L3_L4_Lat_Bending	L3_L4_axial_rotation	L2_L3_Flex_Ext	L2_L3_Lat_Bending	L2_L3_axial_rotation	L1_L2_Flex_Ext	L1_L2_Lat_Bending	L1_L2_axial_rotation	L1_T12_Flex_Ext	L1_T12_Lat_Bending	L1_T12_axial_rotation	Abs_r3	Abs_r2	Abs_r1	Abs_t1	Abs_t2	neck_flexion	neck_bending	neck_rotation	arm_flex_r	arm_add_r	arm_rot_r	elbow_flex_r	pro_sup_r	wrist_flex_r	wrist_dev_r	arm_flex_l	arm_add_l	arm_rot_l	elbow_flex_l	pro_sup_l	wrist_flex_l	wrist_dev_l
6.000000	-7.739714	9.811129	104.173786	0.245076	0.771400	0.696520	-8.755314	-1.278220	-5.918601	8.843580	0.154350	29.545790	-14.325926	0.000000	-6.627390	1.057638	3.619476	8.318573	0.145186	29.059349	13.579194	0.000000	-1.387854	-0.212527	-0.783209	-2.577383	-0.282661	-0.832159	-2.280105	-0.516738	-0.832159	-1.586178	-0.516738	-0.685308	-1.288761	-0.433385	-0.636357	-0.793020	-0.329204	-0.587407	-9.913301	-2.404146	-4.355973	0.000000	0.000000	-24.591243	11.024934	-1.506154	33.037600	4.641677	14.812977	140.092017	89.331173	-6.240498	6.564671	32.384933	5.985731	9.459147	146.445939	89.352832	15.183190	9.751380
6.016667	-7.708626	9.418415	104.016215	0.244814	0.770828	0.698300	-8.176685	-1.427318	-5.865443	8.928757	0.155836	29.393862	-14.369954	0.000000	-6.066980	1.205368	3.397719	8.470955	0.147846	28.563434	13.505445	0.000000	-1.363460	-0.225098	-0.755153	-2.532081	-0.299381	-0.802350	-2.240028	-0.547304	-0.802350	-1.558298	-0.547304	-0.660759	-1.266109	-0.459021	-0.613562	-0.779081	-0.348677	-0.566365	-9.739056	-2.546358	-4.199933	0.000000	0.000000	-24.868019	11.174966	-1.760672	32.956456	4.320743	14.047861	140.244558	89.284642	-6.073007	7.222885	31.980524	5.917765	9.937681	146.177402	89.336991	15.219745	10.261094
6.033333	-7.684740	9.062492	103.787155	0.244706	0.770378	0.700238	-7.611760	-1.582448	-5.736534	9.023805	0.157495	29.168698	-14.438662	0.000000	-5.526934	1.365085	3.254950	8.650569	0.150981	27.967503	13.214473	0.000000	-1.345317	-0.240843	-0.728446	-2.498389	-0.320321	-0.773974	-2.210222	-0.585585	-0.773974	-1.537563	-0.585585	-0.637390	-1.249262	-0.491126	-0.591862	-0.768714	-0.373065	-0.546334	-9.609467	-2.724459	-4.051397	0.000000	0.000000	-25.121193	11.298705	-2.047301	32.826611	4.010672	13.203282	140.490406	89.243525	-5.731027	7.994883	31.687476	5.789946	10.584730	145.709599	89.323670	14.833181	10.302725
6.050000	-7.663454	8.739907	103.495345	0.244776	0.770059	0.702364	-7.051594	-1.735753	-5.527819	9.128959	0.159330	28.887060	-14.522954	0.000000	-4.981545	1.516226	3.022812	8.888880	0.155140	27.334754	12.942925	0.000000	-1.334962	-0.258394	-0.707201	-2.479157	-0.343664	-0.751401	-2.193209	-0.628259	-0.751401	-1.525728	-0.628259	-0.618801	-1.239645	-0.526917	-0.574601	-0.762797	-0.400252	-0.530401	-9.535498	-2.923002	-3.933241	0.000000	0.000000	-25.334894	11.366350	-2.353493	32.624937	3.710011	12.441852	140.797767	89.209399	-5.503252	8.681949	31.521358	5.644847	11.240108	145.080420	89.313298	14.370389	10.081519
6.066667	-7.650140	8.446158	103.160663	0.245033	0.769873	0.704653	-6.501676	-1.887027	-5.262083	9.227906	0.161057	28.573235	-14.602103	0.000000	-4.433888	1.664613	2.813276	9.170037	0.160047	26.664924	12.585732	0.000000	-1.332611	-0.277534	-0.693053	-2.474792	-0.369120	-0.736369	-2.189346	-0.674795	-0.736369	-1.523041	-0.674795	-0.606422	-1.237462	-0.565946	-0.563106	-0.761454	-0.429899	-0.519790	-9.518706	-3.139515	-3.854554	0.000000	0.000000	-25.482878	11.343841	-2.720297	32.319044	3.477813	11.752267	141.168396	89.182782	-5.191971	9.359280	31.485312	5.465206	11.935531	144.315880	89.307176	13.622728	9.545242
6.083333	-7.651940	8.168333	102.797553	0.245465	0.769793	0.707052	-5.966121	-2.042524	-4.962020	9.292877	0.162191	28.250077	-14.643078	0.000000	-3.869223	1.815838	2.626067	9.504074	0.165877	25.975940	12.142778	0.000000	-1.335868	-0.298176	-0.691178	-2.480840	-0.396574	-0.734377	-2.194697	-0.724985	-0.734377	-1.526763	-0.724985	-0.604781	-1.240487	-0.608040	-0.561582	-0.763315	-0.461874	-0.518384	-9.541971	-3.373025	-3.844126	0.000000	0.000000	-25.559661	11.206146	-3.128257	31.903200	3.354138	11.200216	141.563112	89.163023	-4.821840	9.983180	31.561706	5.255449	12.566241	143.500441	89.305112	12.765717	8.888096
6.100000	-7.664468	7.912025	102.394965	0.246092	0.769799	0.709536	-5.459683	-2.191158	-4.580656	9.304049	0.162386	27.897679	-14.691634	0.000000	-3.302071	1.957452	2.433305	9.876954	0.172385	25.292983	11.633692	0.000000	-1.346333	-0.318685	-0.694198	-2.500275	-0.423851	-0.737585	-2.211891	-0.774851	-0.737585	-1.538724	-0.774851	-0.607423	-1.250205	-0.649863	-0.564036	-0.769295	-0.493644	-0.520649	-9.616723	-3.605032	-3.860921	0.000000	0.000000	-25.527105	10.996326	-3.556525	31.412838	3.343509	10.786658	141.976153	89.146376	-4.386740	10.642507	31.751872	5.002375	13.217761	142.613544	89.307238	11.510715	7.755379
6.116667	-7.691746	7.640566	101.995290	0.246866	0.769831	0.711992	-4.956990	-2.344624	-4.180482	9.268643	0.161768	27.535121	-14.754782	0.000000	-2.707776	2.099786	2.232825	10.271797	0.179277	24.634709	11.135082	0.000000	-1.357253	-0.340060	-0.708946	-2.520555	-0.452280	-0.753255	-2.229832	-0.826822	-0.753255	-1.551205	-0.826822	-0.620327	-1.260345	-0.693450	-0.576018	-0.775535	-0.526753	-0.531709	-9.694725	-3.846827	-3.942943	0.000000	0.000000	-25.424353	10.652913	-4.018883	30.853077	3.477089	10.536925	142.319637	89.133565	-3.896940	11.081768	32.019320	4.711804	13.826399	141.777690	89.312591	9.971153	6.509694
